<svg width="310" height="310" viewBox="0 0 310 310" fill="none" xmlns="http://www.w3.org/2000/svg">
<rect width="310" height="310" fill="#1E1E1E"/>
<rect x="82" y="239.192" width="146" height="20" rx="10" fill="#D9D9D9"/>
<rect x="82" y="239.192" width="146" height="10" fill="#D9D9D9"/>
<path d="M50.0283 218.692C50.9665 230.389 71.0537 239.882 82.4507 243.692L227.508 243.706C238.898 239.905 259.032 230.403 259.972 218.692H50.0283Z" fill="#D9D9D9"/>
<path d="M84 244.192C72.8384 240.725 50.4121 230.672 50 218.192M226 244.192C237.162 240.725 259.588 230.672 260 218.192M50 218.692H260M82 243.692L228 243.706" stroke="#D9D9D9"/>
<rect x="92" y="202.192" width="126" height="16" rx="8" fill="#F0C834"/>
<rect x="92" y="202.192" width="57" height="16" rx="8" fill="#FAB404"/>
<rect x="112" y="188.192" width="86" height="16" rx="8" fill="#F0C834"/>
<rect x="112" y="188.192" width="48" height="16" rx="8" fill="#FAB404"/>
<rect x="127" y="174.192" width="56" height="16" rx="8" fill="#F0C834"/>
<rect x="127" y="174.192" width="41" height="16" rx="8" fill="#FAB404"/>
<path d="M100 218.192C130.809 218.014 193.14 214.565 196 202.192" stroke="#D25541"/>
<path d="M115 202.192C137.14 202.192 181.735 199.392 183 188.192" stroke="#D25541"/>
<path d="M130 188.126C143.397 188.605 171.953 186.689 179 175.192" stroke="#D25541"/>
<path d="M152 174.3C147.833 175.635 138.8 174.3 136 158.28C148.8 157.078 152 168.46 152 174.3Z" fill="#3C9C54" stroke="#387F4E"/>
<path d="M156.75 176.084C152.615 175.854 145.324 171.332 149.238 155.084C160.793 158.549 159.061 170.528 156.75 176.084Z" fill="#3C9C54" stroke="#387F4E"/>
<path d="M122.68 114.72L138.04 78.24H141.304L121.592 124.384H119.8L100.024 78.24H103.48L118.84 114.592C119.907 117.195 120.568 118.987 120.824 119.968C121.165 118.603 121.784 116.853 122.68 114.72ZM162.601 112.928L175.849 79.136H177.705L189.289 113.184C190.185 115.872 190.782 117.813 191.081 119.008C191.422 117.6 192.019 115.68 192.873 113.248L204.649 78.24H207.849L191.913 124.384H190.121L178.281 90.464C178.11 89.9093 177.918 89.3547 177.705 88.8C177.534 88.2453 177.385 87.7547 177.257 87.328C177.129 86.9013 177.001 86.5387 176.873 86.24L176.617 85.472C176.574 85.2587 176.553 85.1307 176.553 85.088C176.041 86.624 175.379 88.3947 174.569 90.4L161.193 124.384H159.401L143.337 78.24H146.729L158.441 112.672C158.995 114.208 159.443 115.595 159.785 116.832C160.169 118.069 160.382 118.752 160.425 118.88C160.638 117.899 161.363 115.915 162.601 112.928Z" fill="black"/>
</svg>
