<svg width="310" height="310" viewBox="0 0 310 310" fill="none" xmlns="http://www.w3.org/2000/svg">
<rect x="82" y="187.192" width="146" height="20" rx="10" fill="#D9D9D9"/>
<rect x="82" y="187.192" width="146" height="10" fill="#D9D9D9"/>
<path d="M50.0283 166.692C50.9665 178.389 71.0537 187.882 82.4507 191.692L227.508 191.706C238.898 187.905 259.032 178.403 259.972 166.692H50.0283Z" fill="#D9D9D9"/>
<path d="M84 192.192C72.8384 188.725 50.4121 178.672 50 166.192M226 192.192C237.162 188.725 259.588 178.672 260 166.192M50 166.692H260M82 191.692L228 191.706" stroke="#D9D9D9"/>
<rect x="92" y="150.192" width="126" height="16" rx="8" fill="#F0C834"/>
<rect x="92" y="150.192" width="57" height="16" rx="8" fill="#FAB404"/>
<rect x="112" y="136.192" width="86" height="16" rx="8" fill="#F0C834"/>
<rect x="112" y="136.192" width="48" height="16" rx="8" fill="#FAB404"/>
<rect x="127" y="122.192" width="56" height="16" rx="8" fill="#F0C834"/>
<rect x="127" y="122.192" width="41" height="16" rx="8" fill="#FAB404"/>
<path d="M100 166.192C130.809 166.014 193.14 162.565 196 150.192" stroke="#D25541"/>
<path d="M115 150.192C137.14 150.192 181.735 147.392 183 136.192" stroke="#D25541"/>
<path d="M130 136.126C143.397 136.605 171.953 134.689 179 123.192" stroke="#D25541"/>
<path d="M152 122.3C147.833 123.635 138.8 122.3 136 106.28C148.8 105.078 152 116.46 152 122.3Z" fill="#3C9C54" stroke="#387F4E"/>
<path d="M156.75 124.084C152.615 123.854 145.324 119.332 149.238 103.084C160.793 106.549 159.061 118.528 156.75 124.084Z" fill="#3C9C54" stroke="#387F4E"/>
</svg>
